<mxfile host="app.diagrams.net" modified="2024-05-14T19:51:24.574Z" agent="Mozilla/5.0 (X11; Linux x86_64; rv:125.0) Gecko/20100101 Firefox/125.0" etag="2LJvQQEcnapr3nScXvdy" version="24.4.0" type="device">
  <diagram name="Page-1" id="OxX2uWkqPtTziMzd762y">
    <mxGraphModel dx="1804" dy="600" grid="1" gridSize="10" guides="1" tooltips="1" connect="1" arrows="1" fold="1" page="1" pageScale="1" pageWidth="850" pageHeight="1100" math="0" shadow="0">
      <root>
        <mxCell id="0" />
        <mxCell id="1" parent="0" />
        <mxCell id="m60Ak_FdpvgGXCt5-zbN-36" value="" style="rounded=0;whiteSpace=wrap;html=1;" vertex="1" parent="1">
          <mxGeometry x="200" y="160" width="490" height="320" as="geometry" />
        </mxCell>
        <mxCell id="m60Ak_FdpvgGXCt5-zbN-2" value="" style="rounded=0;whiteSpace=wrap;html=1;" vertex="1" parent="1">
          <mxGeometry x="510" y="170" width="170" height="100" as="geometry" />
        </mxCell>
        <mxCell id="m60Ak_FdpvgGXCt5-zbN-3" value="k8s cluster" style="text;html=1;align=center;verticalAlign=middle;whiteSpace=wrap;rounded=0;" vertex="1" parent="1">
          <mxGeometry x="210" y="160" width="60" height="30" as="geometry" />
        </mxCell>
        <mxCell id="m60Ak_FdpvgGXCt5-zbN-4" value="job dispatcher deployment" style="text;html=1;align=center;verticalAlign=middle;whiteSpace=wrap;rounded=0;" vertex="1" parent="1">
          <mxGeometry x="520" y="170" width="150" height="30" as="geometry" />
        </mxCell>
        <mxCell id="m60Ak_FdpvgGXCt5-zbN-5" value="job dispatcher pod" style="rounded=0;whiteSpace=wrap;html=1;" vertex="1" parent="1">
          <mxGeometry x="535" y="210" width="120" height="40" as="geometry" />
        </mxCell>
        <mxCell id="m60Ak_FdpvgGXCt5-zbN-7" value="job dispatcher service" style="rounded=0;whiteSpace=wrap;html=1;" vertex="1" parent="1">
          <mxGeometry x="325" y="205" width="140" height="30" as="geometry" />
        </mxCell>
        <mxCell id="m60Ak_FdpvgGXCt5-zbN-10" value="ingress" style="rounded=0;whiteSpace=wrap;html=1;" vertex="1" parent="1">
          <mxGeometry x="220" y="205" width="70" height="30" as="geometry" />
        </mxCell>
        <mxCell id="m60Ak_FdpvgGXCt5-zbN-13" value="" style="rounded=0;whiteSpace=wrap;html=1;" vertex="1" parent="1">
          <mxGeometry x="525" y="300" width="140" height="170" as="geometry" />
        </mxCell>
        <mxCell id="m60Ak_FdpvgGXCt5-zbN-14" value="worker deployment" style="text;html=1;align=center;verticalAlign=middle;whiteSpace=wrap;rounded=0;" vertex="1" parent="1">
          <mxGeometry x="532.5" y="300" width="125" height="30" as="geometry" />
        </mxCell>
        <mxCell id="m60Ak_FdpvgGXCt5-zbN-15" value="worker pod 1" style="rounded=0;whiteSpace=wrap;html=1;" vertex="1" parent="1">
          <mxGeometry x="547.5" y="340" width="95" height="30" as="geometry" />
        </mxCell>
        <mxCell id="m60Ak_FdpvgGXCt5-zbN-17" value="worker pod 2" style="rounded=0;whiteSpace=wrap;html=1;" vertex="1" parent="1">
          <mxGeometry x="547.5" y="380" width="95" height="30" as="geometry" />
        </mxCell>
        <mxCell id="m60Ak_FdpvgGXCt5-zbN-19" value="worker pod ..." style="rounded=0;whiteSpace=wrap;html=1;" vertex="1" parent="1">
          <mxGeometry x="547.5" y="420" width="95" height="30" as="geometry" />
        </mxCell>
        <mxCell id="m60Ak_FdpvgGXCt5-zbN-20" value="rabbitmq service" style="rounded=0;whiteSpace=wrap;html=1;" vertex="1" parent="1">
          <mxGeometry x="340" y="250" width="110" height="30" as="geometry" />
        </mxCell>
        <mxCell id="m60Ak_FdpvgGXCt5-zbN-22" value="" style="rounded=0;whiteSpace=wrap;html=1;" vertex="1" parent="1">
          <mxGeometry x="325" y="300" width="140" height="90" as="geometry" />
        </mxCell>
        <mxCell id="m60Ak_FdpvgGXCt5-zbN-23" value="rabbitmq deployment" style="text;html=1;align=center;verticalAlign=middle;whiteSpace=wrap;rounded=0;" vertex="1" parent="1">
          <mxGeometry x="332.5" y="300" width="125" height="30" as="geometry" />
        </mxCell>
        <mxCell id="m60Ak_FdpvgGXCt5-zbN-24" value="rabbitmq pod" style="rounded=0;whiteSpace=wrap;html=1;" vertex="1" parent="1">
          <mxGeometry x="347.5" y="340" width="95" height="30" as="geometry" />
        </mxCell>
        <mxCell id="m60Ak_FdpvgGXCt5-zbN-25" value="" style="endArrow=none;html=1;rounded=0;exitX=1;exitY=0.5;exitDx=0;exitDy=0;entryX=0;entryY=0.5;entryDx=0;entryDy=0;" edge="1" parent="1" source="m60Ak_FdpvgGXCt5-zbN-10" target="m60Ak_FdpvgGXCt5-zbN-7">
          <mxGeometry width="50" height="50" relative="1" as="geometry">
            <mxPoint x="420" y="390" as="sourcePoint" />
            <mxPoint x="470" y="340" as="targetPoint" />
          </mxGeometry>
        </mxCell>
        <mxCell id="m60Ak_FdpvgGXCt5-zbN-27" value="" style="endArrow=none;html=1;rounded=0;exitX=1;exitY=0.5;exitDx=0;exitDy=0;entryX=0;entryY=0.5;entryDx=0;entryDy=0;" edge="1" parent="1" source="m60Ak_FdpvgGXCt5-zbN-7" target="m60Ak_FdpvgGXCt5-zbN-2">
          <mxGeometry width="50" height="50" relative="1" as="geometry">
            <mxPoint x="420" y="390" as="sourcePoint" />
            <mxPoint x="470" y="340" as="targetPoint" />
          </mxGeometry>
        </mxCell>
        <mxCell id="m60Ak_FdpvgGXCt5-zbN-30" value="" style="endArrow=none;html=1;rounded=0;exitX=1;exitY=0.5;exitDx=0;exitDy=0;entryX=0;entryY=0.25;entryDx=0;entryDy=0;" edge="1" parent="1" source="m60Ak_FdpvgGXCt5-zbN-20" target="m60Ak_FdpvgGXCt5-zbN-13">
          <mxGeometry width="50" height="50" relative="1" as="geometry">
            <mxPoint x="420" y="390" as="sourcePoint" />
            <mxPoint x="470" y="340" as="targetPoint" />
          </mxGeometry>
        </mxCell>
        <mxCell id="m60Ak_FdpvgGXCt5-zbN-34" value="" style="endArrow=none;html=1;rounded=0;exitX=1;exitY=0.5;exitDx=0;exitDy=0;entryX=0;entryY=0.5;entryDx=0;entryDy=0;" edge="1" parent="1" source="m60Ak_FdpvgGXCt5-zbN-20" target="m60Ak_FdpvgGXCt5-zbN-2">
          <mxGeometry width="50" height="50" relative="1" as="geometry">
            <mxPoint x="470" y="360" as="sourcePoint" />
            <mxPoint x="470" y="340" as="targetPoint" />
          </mxGeometry>
        </mxCell>
        <mxCell id="m60Ak_FdpvgGXCt5-zbN-35" value="" style="endArrow=none;html=1;rounded=0;entryX=0.5;entryY=1;entryDx=0;entryDy=0;exitX=0.5;exitY=0;exitDx=0;exitDy=0;" edge="1" parent="1" source="m60Ak_FdpvgGXCt5-zbN-23" target="m60Ak_FdpvgGXCt5-zbN-20">
          <mxGeometry width="50" height="50" relative="1" as="geometry">
            <mxPoint x="420" y="390" as="sourcePoint" />
            <mxPoint x="470" y="340" as="targetPoint" />
          </mxGeometry>
        </mxCell>
        <mxCell id="m60Ak_FdpvgGXCt5-zbN-37" value="&lt;div style=&quot;font-size: 14px;&quot;&gt;&lt;b&gt;Browser&lt;/b&gt;&lt;/div&gt;&lt;div&gt;&lt;br&gt;&lt;/div&gt;&lt;div&gt;admin interface&lt;/div&gt;&lt;div&gt;https://remote-clp.kube.isc.heia-fr.ch&lt;br&gt;&lt;/div&gt;" style="rounded=0;whiteSpace=wrap;html=1;" vertex="1" parent="1">
          <mxGeometry x="-90" y="170" width="210" height="70" as="geometry" />
        </mxCell>
        <mxCell id="m60Ak_FdpvgGXCt5-zbN-38" value="" style="endArrow=none;html=1;rounded=0;exitX=1;exitY=0.5;exitDx=0;exitDy=0;entryX=0;entryY=0.5;entryDx=0;entryDy=0;" edge="1" parent="1" source="m60Ak_FdpvgGXCt5-zbN-37" target="m60Ak_FdpvgGXCt5-zbN-10">
          <mxGeometry width="50" height="50" relative="1" as="geometry">
            <mxPoint x="220" y="390" as="sourcePoint" />
            <mxPoint x="270" y="340" as="targetPoint" />
          </mxGeometry>
        </mxCell>
        <mxCell id="m60Ak_FdpvgGXCt5-zbN-39" value="&lt;div style=&quot;font-size: 14px;&quot;&gt;&lt;b&gt;Prolog Client&lt;br&gt;&lt;/b&gt;&lt;/div&gt;" style="rounded=0;whiteSpace=wrap;html=1;" vertex="1" parent="1">
          <mxGeometry x="-40" y="270" width="110" height="40" as="geometry" />
        </mxCell>
        <mxCell id="m60Ak_FdpvgGXCt5-zbN-40" value="" style="endArrow=none;html=1;rounded=0;exitX=1;exitY=0.5;exitDx=0;exitDy=0;entryX=0;entryY=0.5;entryDx=0;entryDy=0;" edge="1" parent="1" source="m60Ak_FdpvgGXCt5-zbN-39" target="m60Ak_FdpvgGXCt5-zbN-10">
          <mxGeometry width="50" height="50" relative="1" as="geometry">
            <mxPoint x="190" y="280" as="sourcePoint" />
            <mxPoint x="240" y="230" as="targetPoint" />
          </mxGeometry>
        </mxCell>
      </root>
    </mxGraphModel>
  </diagram>
</mxfile>
